<svg id="visual" viewBox="0 0 1328 200" width="1328" height="200" xmlns="http://www.w3.org/2000/svg" xmlns:xlink="http://www.w3.org/1999/xlink" version="1.1"><path d="M0 96L20.2 100.7C40.3 105.3 80.7 114.7 120.8 115.5C161 116.3 201 108.7 241.2 103C281.3 97.3 321.7 93.7 362 105.8C402.3 118 442.7 146 483 148.7C523.3 151.3 563.7 128.7 603.8 118.7C644 108.7 684 111.3 724.2 111.7C764.3 112 804.7 110 845 114.3C885.3 118.7 925.7 129.3 966 130.5C1006.3 131.7 1046.7 123.3 1086.8 116.7C1127 110 1167 105 1207.2 102.2C1247.3 99.3 1287.7 98.7 1307.8 98.3L1328 98L1328 201L1307.8 201C1287.7 201 1247.3 201 1207.2 201C1167 201 1127 201 1086.8 201C1046.7 201 1006.3 201 966 201C925.7 201 885.3 201 845 201C804.7 201 764.3 201 724.2 201C684 201 644 201 603.8 201C563.7 201 523.3 201 483 201C442.7 201 402.3 201 362 201C321.7 201 281.3 201 241.2 201C201 201 161 201 120.8 201C80.7 201 40.3 201 20.2 201L0 201Z" fill="#deff7d" stroke-linecap="round" stroke-linejoin="miter"></path></svg>