<svg width="1200" height="1200" viewBox="0 0 1200 1200" fill="none" xmlns="http://www.w3.org/2000/svg">
<circle cx="600" cy="490" r="349.5" fill="#CBF34A" stroke="black"/>
<path d="M86.4 1023V1004.92H109.92V924.28H86.4V906.2H153.6V924.28H130.08V1004.92H153.6V1023H86.4ZM180.258 1023V935H199.778V951.48C200.844 945.933 203.458 941.56 207.618 938.36C211.778 935.053 217.058 933.4 223.458 933.4C232.098 933.4 238.978 936.28 244.098 942.04C249.324 947.8 251.938 955.533 251.938 965.24V1023H231.938V967.64C231.938 962.2 230.498 958.04 227.618 955.16C224.844 952.173 221.058 950.68 216.258 950.68C211.244 950.68 207.298 952.173 204.418 955.16C201.644 958.147 200.258 962.413 200.258 967.96V1023H180.258ZM308.195 1024.44C297.742 1024.44 289.475 1022.09 283.395 1017.4C277.315 1012.6 274.275 1006.15 274.275 998.04H293.955C293.955 1001.45 295.182 1004.07 297.635 1005.88C300.195 1007.69 303.715 1008.6 308.195 1008.6H315.235C320.035 1008.6 323.715 1007.69 326.275 1005.88C328.942 1004.07 330.275 1001.45 330.275 998.04C330.275 994.84 329.368 992.493 327.555 991C325.742 989.4 322.968 988.333 319.235 987.8L297.315 984.92C290.275 983.96 284.835 981.24 280.995 976.76C277.262 972.28 275.395 966.467 275.395 959.32C275.395 951 278.168 944.653 283.715 940.28C289.262 935.8 297.262 933.56 307.715 933.56H315.075C324.888 933.56 332.782 935.8 338.755 940.28C344.728 944.76 347.822 950.733 348.035 958.2H328.195C328.088 955.427 326.862 953.24 324.515 951.64C322.168 949.933 319.022 949.08 315.075 949.08H307.715C303.448 949.08 300.195 949.987 297.955 951.8C295.715 953.507 294.595 955.853 294.595 958.84C294.595 961.507 295.395 963.48 296.995 964.76C298.702 966.04 301.155 966.84 304.355 967.16L324.995 970.04C333.102 971 339.182 973.88 343.235 978.68C347.395 983.373 349.475 989.72 349.475 997.72C349.475 1006.25 346.542 1012.87 340.675 1017.56C334.915 1022.15 326.435 1024.44 315.235 1024.44H308.195ZM372.133 1051.8V935H391.653V951.16C393.253 945.613 396.133 941.293 400.293 938.2C404.453 935 409.626 933.4 415.813 933.4C421.466 933.4 426.426 934.787 430.693 937.56C435.066 940.333 438.426 944.28 440.773 949.4C443.226 954.413 444.453 960.28 444.453 967V990.84C444.453 1000.97 441.839 1009.13 436.613 1015.32C431.386 1021.51 424.453 1024.6 415.813 1024.6C409.626 1024.6 404.399 1023 400.133 1019.8C395.973 1016.6 393.093 1012.12 391.493 1006.36L392.133 1027.16V1051.8H372.133ZM408.293 1007.32C413.413 1007.32 417.359 1005.93 420.133 1003.16C423.013 1000.39 424.453 996.12 424.453 990.36V967.64C424.453 961.88 423.013 957.613 420.133 954.84C417.359 952.067 413.413 950.68 408.293 950.68C403.173 950.68 399.173 952.227 396.293 955.32C393.519 958.413 392.133 962.787 392.133 968.44V989.56C392.133 995.213 393.519 999.587 396.293 1002.68C399.173 1005.77 403.173 1007.32 408.293 1007.32ZM467.91 1023V1004.92H497.99V953.08H471.11V935H517.99V1004.92H545.03V1023H467.91ZM506.63 920.28C502.577 920.28 499.377 919.267 497.03 917.24C494.683 915.107 493.51 912.28 493.51 908.76C493.51 905.24 494.683 902.467 497.03 900.44C499.377 898.307 502.577 897.24 506.63 897.24C510.683 897.24 513.883 898.307 516.23 900.44C518.577 902.467 519.75 905.24 519.75 908.76C519.75 912.28 518.577 915.107 516.23 917.24C513.883 919.267 510.683 920.28 506.63 920.28ZM567.208 1023V935H586.728V952.12C587.794 946.36 590.408 941.827 594.568 938.52C598.834 935.107 604.328 933.4 611.048 933.4C620.008 933.4 626.994 936.28 632.008 942.04C637.021 947.8 639.528 955.853 639.528 966.2V974.52H619.528V967.16C619.528 961.827 618.141 957.773 615.368 955C612.594 952.12 608.648 950.68 603.528 950.68C598.194 950.68 594.141 952.28 591.368 955.48C588.594 958.68 587.208 963.213 587.208 969.08V1023H567.208ZM695.785 1024.6C688.318 1024.6 681.812 1023.16 676.265 1020.28C670.718 1017.4 666.398 1013.35 663.305 1008.12C660.318 1002.79 658.825 996.547 658.825 989.4V968.6C658.825 961.453 660.318 955.267 663.305 950.04C666.398 944.707 670.718 940.6 676.265 937.72C681.812 934.84 688.318 933.4 695.785 933.4C703.145 933.4 709.545 934.84 714.985 937.72C720.532 940.6 724.798 944.653 727.785 949.88C730.878 955 732.425 961.027 732.425 967.96V983.96H678.025V990.04C678.025 996.013 679.572 1000.55 682.665 1003.64C685.758 1006.63 690.132 1008.12 695.785 1008.12C699.945 1008.12 703.465 1007.43 706.345 1006.04C709.332 1004.55 711.092 1002.41 711.625 999.64H731.465C730.078 1007.21 726.132 1013.29 719.625 1017.88C713.118 1022.36 705.172 1024.6 695.785 1024.6ZM678.025 967.96V971L713.225 970.84V967.8C713.225 961.72 711.732 957.027 708.745 953.72C705.758 950.413 701.438 948.76 695.785 948.76C689.918 948.76 685.492 950.467 682.505 953.88C679.518 957.187 678.025 961.88 678.025 967.96ZM792.843 1024.6C785.269 1024.6 778.709 1023.21 773.163 1020.44C767.616 1017.56 763.296 1013.56 760.203 1008.44C757.216 1003.21 755.723 997.08 755.723 990.04V939.16C755.723 932.12 757.216 926.04 760.203 920.92C763.296 915.693 767.616 911.693 773.163 908.92C778.709 906.04 785.269 904.6 792.843 904.6C800.309 904.6 806.816 906.04 812.363 908.92C817.909 911.693 822.229 915.693 825.323 920.92C828.416 926.04 829.963 932.12 829.963 939.16H809.803C809.803 933.72 808.309 929.56 805.323 926.68C802.443 923.693 798.283 922.2 792.843 922.2C787.403 922.2 783.189 923.693 780.203 926.68C777.216 929.56 775.723 933.72 775.723 939.16V990.04C775.723 995.48 777.216 999.693 780.203 1002.68C783.189 1005.56 787.403 1007 792.843 1007C798.283 1007 802.443 1005.56 805.323 1002.68C808.309 999.693 809.803 995.48 809.803 990.04H829.963C829.963 997.08 828.416 1003.21 825.323 1008.44C822.229 1013.56 817.909 1017.56 812.363 1020.44C806.816 1023.21 800.309 1024.6 792.843 1024.6ZM887.5 1024.44C876.193 1024.44 867.233 1021.29 860.62 1015C854.007 1008.6 850.7 1000.01 850.7 989.24V968.76C850.7 957.88 854.007 949.293 860.62 943C867.233 936.707 876.193 933.56 887.5 933.56C898.807 933.56 907.767 936.707 914.38 943C920.993 949.293 924.3 957.88 924.3 968.76V989.24C924.3 1000.01 920.993 1008.6 914.38 1015C907.767 1021.29 898.807 1024.44 887.5 1024.44ZM887.5 1007C892.833 1007 896.94 1005.56 899.82 1002.68C902.807 999.693 904.3 995.427 904.3 989.88V968.12C904.3 962.573 902.807 958.36 899.82 955.48C896.94 952.493 892.833 951 887.5 951C882.167 951 878.007 952.493 875.02 955.48C872.14 958.36 870.7 962.573 870.7 968.12V989.88C870.7 995.427 872.14 999.693 875.02 1002.68C878.007 1005.56 882.167 1007 887.5 1007ZM975.438 1024.6C966.904 1024.6 959.971 1021.56 954.638 1015.48C949.411 1009.4 946.798 1001.24 946.798 991V967.16C946.798 956.813 949.411 948.6 954.638 942.52C959.864 936.44 966.798 933.4 975.438 933.4C981.518 933.4 986.638 934.947 990.798 938.04C995.064 941.133 998.051 945.453 999.758 951L999.118 930.84V906.2H1019.12V1023H999.598V1007C997.998 1012.55 995.118 1016.87 990.958 1019.96C986.798 1023.05 981.624 1024.6 975.438 1024.6ZM982.958 1007.32C988.078 1007.32 992.024 1005.77 994.798 1002.68C997.678 999.587 999.118 995.213 999.118 989.56V968.44C999.118 962.787 997.678 958.413 994.798 955.32C992.024 952.227 988.078 950.68 982.958 950.68C977.838 950.68 973.838 952.067 970.958 954.84C968.184 957.613 966.798 961.88 966.798 967.64V990.36C966.798 996.12 968.184 1000.39 970.958 1003.16C973.838 1005.93 977.838 1007.32 982.958 1007.32ZM1079.54 1024.6C1072.07 1024.6 1065.56 1023.16 1060.02 1020.28C1054.47 1017.4 1050.15 1013.35 1047.06 1008.12C1044.07 1002.79 1042.58 996.547 1042.58 989.4V968.6C1042.58 961.453 1044.07 955.267 1047.06 950.04C1050.15 944.707 1054.47 940.6 1060.02 937.72C1065.56 934.84 1072.07 933.4 1079.54 933.4C1086.9 933.4 1093.3 934.84 1098.74 937.72C1104.28 940.6 1108.55 944.653 1111.54 949.88C1114.63 955 1116.18 961.027 1116.18 967.96V983.96H1061.78V990.04C1061.78 996.013 1063.32 1000.55 1066.42 1003.64C1069.51 1006.63 1073.88 1008.12 1079.54 1008.12C1083.7 1008.12 1087.22 1007.43 1090.1 1006.04C1093.08 1004.55 1094.84 1002.41 1095.38 999.64H1115.22C1113.83 1007.21 1109.88 1013.29 1103.38 1017.88C1096.87 1022.36 1088.92 1024.6 1079.54 1024.6ZM1061.78 967.96V971L1096.98 970.84V967.8C1096.98 961.72 1095.48 957.027 1092.5 953.72C1089.51 950.413 1085.19 948.76 1079.54 948.76C1073.67 948.76 1069.24 950.467 1066.26 953.88C1063.27 957.187 1061.78 961.88 1061.78 967.96Z" fill="#CBF34A"/>
<circle cx="466" cy="338" r="50" fill="#1A181B"/>
<circle cx="791" cy="512" r="50" fill="#1A181B"/>
<circle cx="597" cy="488" r="60" fill="#1A181B"/>
<circle cx="400" cy="573" r="40" fill="#1A181B"/>
<circle cx="597" cy="653" r="40" fill="#1A181B"/>
<circle cx="516" cy="582" r="25" fill="#1A181B"/>
<circle cx="466" cy="463" r="25" fill="#1A181B"/>
<circle cx="597" cy="353" r="25" fill="#1A181B"/>
<circle cx="712" cy="368" r="40" fill="#1A181B"/>
<rect x="800.707" y="512.434" width="11" height="205" transform="rotate(97.4087 800.707 512.434)" fill="#1A181B"/>
<rect x="596.684" y="495.866" width="11" height="205" transform="rotate(143.535 596.684 495.866)" fill="#1A181B"/>
<rect x="582.334" y="489.033" width="11" height="205" transform="rotate(-130.025 582.334 489.033)" fill="#1A181B"/>
<rect x="595.939" y="679.021" width="11" height="205" transform="rotate(-173.972 595.939 679.021)" fill="#1A181B"/>
<rect x="415.221" y="576.984" width="11" height="205" transform="rotate(-118.336 415.221 576.984)" fill="#1A181B"/>
</svg>
