<svg width="736" height="781" viewBox="0 0 736 781" fill="none" xmlns="http://www.w3.org/2000/svg">
<g clip-path="url(#clip0_1_2)">
<path d="M735.236 173.447H731.237V63.9019C731.237 55.5759 729.598 47.3313 726.411 39.6391C723.225 31.9468 718.555 24.9574 712.668 19.07C706.78 13.1826 699.791 8.51245 692.099 5.3262C684.406 2.13995 676.162 0.500007 667.836 0.5H435.749C427.423 0.49998 419.178 2.1399 411.486 5.32612C403.794 8.51235 396.804 13.1825 390.917 19.0699C385.03 24.9573 380.359 31.9466 377.173 39.6389C373.987 47.3312 372.347 55.5757 372.347 63.9017V664.876C372.347 681.691 379.027 697.818 390.917 709.708C402.807 721.598 418.934 728.278 435.749 728.278H667.835C684.651 728.278 700.777 721.598 712.667 709.708C724.557 697.818 731.237 681.692 731.237 664.876V251.423H735.236L735.236 173.447Z" fill="#1A181B"/>
<path d="M670.394 16.995H640.099C641.492 20.4106 642.024 24.1165 641.647 27.786C641.271 31.4556 639.998 34.9763 637.94 38.038C635.883 41.0997 633.104 43.6084 629.848 45.3431C626.593 47.0778 622.96 47.9852 619.272 47.9855H486.312C482.623 47.9852 478.991 47.0778 475.736 45.3431C472.48 43.6084 469.701 41.0997 467.643 38.038C465.586 34.9763 464.313 31.4556 463.936 27.786C463.56 24.1164 464.092 20.4106 465.485 16.9949H437.189C424.632 16.9949 412.589 21.9833 403.709 30.8627C394.83 39.7422 389.842 51.7853 389.842 64.3427V664.435C389.842 676.993 394.83 689.036 403.709 697.915C412.589 706.795 424.632 711.783 437.189 711.783H670.394C676.612 711.783 682.768 710.558 688.513 708.179C694.257 705.799 699.477 702.312 703.874 697.915C708.27 693.519 711.758 688.299 714.137 682.555C716.517 676.81 717.742 670.653 717.742 664.435V64.3427C717.742 58.1249 716.517 51.968 714.137 46.2235C711.758 40.479 708.27 35.2594 703.874 30.8628C699.477 26.4661 694.257 22.9785 688.513 20.5991C682.768 18.2196 676.612 16.995 670.394 16.995Z" fill="white"/>
<path d="M566.031 669.279C545.423 669.289 525.439 662.215 509.426 649.243C493.413 636.271 482.345 618.19 478.078 598.029C473.81 577.868 476.602 556.853 485.985 538.506C495.368 520.158 510.772 505.593 529.616 497.252C548.46 488.91 569.599 487.3 589.489 492.689C609.38 498.079 626.813 510.141 638.868 526.855C650.923 543.569 656.867 563.918 655.704 584.493C654.541 605.067 646.341 624.617 632.479 639.866L651.244 660.901L641.88 664.873C627.393 671.018 613.217 665.039 605.261 660.267C593.032 666.195 579.62 669.276 566.031 669.279ZM566.031 504.331C554.571 504.335 543.263 506.958 532.972 512.001C522.681 517.043 513.679 524.372 506.653 533.426C499.628 542.48 494.766 553.021 492.438 564.242C490.109 575.463 490.377 587.068 493.22 598.169C496.064 609.271 501.407 619.576 508.843 628.297C516.278 637.017 525.609 643.922 536.122 648.485C546.635 653.047 558.051 655.146 569.499 654.621C580.947 654.096 592.124 650.961 602.175 645.455L606.184 643.252L609.911 645.904C614.17 649.002 619.007 651.215 624.135 652.412L612.327 639.176L617.503 634.311C625.022 627.308 631.01 618.824 635.091 609.394C639.171 599.964 641.257 589.791 641.215 579.516C641.193 559.583 633.264 540.472 619.169 526.377C605.074 512.282 585.964 504.354 566.031 504.331Z" fill="#E6E6E6"/>
<path d="M648.505 579.516C648.498 561.447 642.555 543.882 631.591 529.521C620.626 515.159 605.248 504.798 587.82 500.029C570.392 495.261 551.881 496.35 535.132 503.129C518.384 509.908 504.327 522.002 495.122 537.549C485.917 553.097 482.075 571.239 484.187 589.183C486.299 607.127 494.247 623.881 506.809 636.868C519.372 649.854 535.853 658.354 553.717 661.06C571.582 663.766 589.84 660.528 605.685 651.844C611.386 655.9 625.294 663.991 639.033 658.163L622.495 639.624C630.716 631.921 637.267 622.61 641.741 612.271C646.216 601.931 648.518 590.782 648.505 579.516Z" fill="white"/>
<path d="M582.486 562.653H523.554V568.125H582.486V562.653Z" fill="#111629"/>
<path d="M626.268 581.585H523.554V587.057H626.268V581.585Z" fill="#E6E6E6"/>
<path d="M626.167 600.516H523.554V605.989H626.167V600.516Z" fill="#E6E6E6"/>
<path d="M566.031 270.279C545.423 270.289 525.439 263.215 509.426 250.243C493.413 237.271 482.346 219.19 478.078 199.029C473.81 178.868 476.602 157.853 485.985 139.506C495.368 121.158 510.773 106.593 529.617 98.2518C548.461 89.9105 569.599 88.2996 589.489 93.6891C609.38 99.0787 626.813 111.141 638.868 127.855C650.923 144.569 656.867 164.918 655.704 185.493C654.541 206.067 646.341 225.617 632.479 240.866L651.244 261.901L641.88 265.873C627.393 272.018 613.217 266.039 605.261 261.267C593.032 267.195 579.62 270.276 566.031 270.279ZM566.031 105.331C554.571 105.335 543.263 107.958 532.972 113.001C522.681 118.043 513.679 125.372 506.653 134.426C499.628 143.48 494.766 154.021 492.437 165.242C490.109 176.463 490.377 188.068 493.22 199.169C496.064 210.271 501.407 220.576 508.843 229.297C516.278 238.017 525.609 244.922 536.122 249.485C546.635 254.047 558.051 256.146 569.499 255.621C580.947 255.096 592.124 251.961 602.175 246.455L606.184 244.252L609.911 246.904C614.17 250.002 619.007 252.215 624.135 253.412L612.327 240.176L617.503 235.311C625.022 228.308 631.01 219.824 635.091 210.394C639.171 200.964 641.257 190.791 641.215 180.516C641.193 160.582 633.264 141.472 619.169 127.377C605.074 113.282 585.964 105.354 566.031 105.331Z" fill="#E6E6E6"/>
<path d="M648.505 180.516C648.497 162.447 642.555 144.882 631.59 130.521C620.626 116.159 605.248 105.798 587.82 101.029C570.392 96.261 551.881 97.3501 535.132 104.129C518.384 110.908 504.326 123.002 495.122 138.549C485.917 154.097 482.075 172.239 484.187 190.183C486.298 208.127 494.247 224.881 506.809 237.868C519.372 250.854 535.852 259.354 553.717 262.06C571.581 264.766 589.84 261.528 605.685 252.844C611.386 256.9 625.294 264.991 639.033 259.163L622.495 240.624C630.716 232.921 637.267 223.61 641.741 213.271C646.215 202.931 648.518 191.782 648.505 180.516Z" fill="white"/>
<path d="M582.486 163.653H523.554V169.125H582.486V163.653Z" fill="#111629"/>
<path d="M626.268 182.585H523.554V188.057H626.268V182.585Z" fill="#E6E6E6"/>
<path d="M626.167 201.516H523.554V206.989H626.167V201.516Z" fill="#E6E6E6"/>
<path d="M680.268 277.946C687.447 277.946 693.268 272.126 693.268 264.946C693.268 257.767 687.447 251.946 680.268 251.946C673.088 251.946 667.268 257.767 667.268 264.946C667.268 272.126 673.088 277.946 680.268 277.946Z" fill="#E6E6E6"/>
<path d="M680.268 676.946C687.447 676.946 693.268 671.126 693.268 663.946C693.268 656.767 687.447 650.946 680.268 650.946C673.088 650.946 667.268 656.767 667.268 663.946C667.268 671.126 673.088 676.946 680.268 676.946Z" fill="#E6E6E6"/>
<path d="M393.174 476.508C383.66 482.214 366.71 489.363 349.39 482.016L338.193 477.266L360.63 452.115C342.726 432.373 332.82 406.668 332.847 380.017C332.875 353.365 342.833 327.681 360.778 307.976C378.722 288.271 403.366 275.961 429.899 273.447C456.431 270.934 482.948 278.398 504.274 294.383C525.6 310.368 540.203 333.727 545.234 359.899C550.265 386.071 545.362 413.179 531.483 435.931C517.603 458.683 495.744 475.446 470.17 482.949C444.597 490.452 417.145 488.156 393.174 476.508Z" fill="#CBF34A"/>
<path opacity="0.1" d="M530.467 379.459C530.465 354.815 521.237 331.065 504.599 312.885C487.961 294.706 465.119 283.415 440.572 281.236C443.444 280.984 446.35 280.848 449.287 280.848C475.43 280.865 500.495 291.261 518.975 309.753C537.454 328.244 547.835 353.316 547.835 379.459C547.835 405.601 537.454 430.673 518.975 449.165C500.495 467.656 475.43 478.052 449.287 478.069C446.354 478.069 443.453 477.931 440.585 477.68C465.13 475.498 487.968 464.205 504.603 446.027C521.238 427.848 530.465 404.1 530.467 379.459Z" fill="black"/>
<path d="M453.919 359.794H383.456V366.338H453.919V359.794Z" fill="#FBFAF8"/>
<path d="M506.267 382.43H383.456V388.974H506.267V382.43Z" fill="#FBFAF8"/>
<path d="M506.147 405.066H383.456V411.61H506.147V405.066Z" fill="#FBFAF8"/>
<path d="M1.5 780.285H382.5C382.765 780.285 383.02 780.179 383.207 779.992C383.395 779.804 383.5 779.55 383.5 779.285C383.5 779.02 383.395 778.765 383.207 778.578C383.02 778.39 382.765 778.285 382.5 778.285H1.5C1.23478 778.285 0.980429 778.39 0.792892 778.578C0.605356 778.765 0.5 779.02 0.5 779.285C0.5 779.55 0.605356 779.804 0.792892 779.992C0.980429 780.179 1.23478 780.285 1.5 780.285Z" fill="#CCCCCC"/>
<path d="M184.285 350.02L185.791 342.49C185.791 342.49 207.94 334.961 210.418 350.02H184.285Z" fill="#E6E6E6"/>
<path d="M226.794 764.598L241.315 764.597L248.223 708.588L226.791 708.589L226.794 764.598Z" fill="#9F616A"/>
<path d="M223.09 759.857L251.687 759.856H251.688C256.521 759.856 261.156 761.776 264.574 765.194C267.991 768.611 269.912 773.246 269.912 778.08V778.672L223.091 778.674L223.09 759.857Z" fill="#1A181B"/>
<path d="M156.794 764.598L171.315 764.597L178.223 708.588L156.791 708.589L156.794 764.598Z" fill="#9F616A"/>
<path d="M153.09 759.857L181.687 759.856H181.688C186.521 759.856 191.156 761.776 194.574 765.194C197.991 768.611 199.912 773.246 199.912 778.08V778.672L153.091 778.674L153.09 759.857Z" fill="#1A181B"/>
<path d="M163.203 381.643L146.638 380.137L136.097 429.831L137.603 475.007L154.168 535.242L176.756 521.689L164.709 459.948L163.203 381.643Z" fill="#1A181B"/>
<path d="M152.718 529.971L156.426 561.594L159.909 635.382L151.909 745.34L180.52 743.805L194.544 629.359L203.108 576.653L215.155 636.888L222.685 749.828L252.049 747.475V636.491L252.802 555.571L242.261 523.948L152.718 529.971Z" fill="#1A181B"/>
<path d="M214.402 351.526C214.402 351.526 203.861 336.467 184.285 347.008L175.25 359.055L146.638 380.137L152.662 450.913L145.132 539.759L252.049 538.254L233.979 449.407V354.537L214.402 351.526Z" fill="#1A181B"/>
<path opacity="0.25" d="M156.426 405.132L147.792 508.371L158.685 452.419L156.426 405.132Z" fill="black"/>
<path d="M336.152 491.692C334.615 492.214 332.981 492.393 331.367 492.216C329.753 492.039 328.198 491.51 326.81 490.666C325.423 489.823 324.237 488.686 323.337 487.334C322.437 485.983 321.843 484.451 321.599 482.846L296.961 476.757L297.009 460.881L331.683 469.969C334.407 469.738 337.121 470.513 339.311 472.149C341.501 473.785 343.015 476.168 343.566 478.845C344.117 481.523 343.666 484.31 342.3 486.677C340.933 489.045 338.746 490.829 336.152 491.692Z" fill="#9F616A"/>
<path d="M310.387 460.691L306.244 484.427L316.628 486.239L320.772 462.504L310.387 460.691Z" fill="#E6E6E6"/>
<path d="M212.149 330.426C226.803 322.415 232.188 304.042 224.178 289.388C216.167 274.734 197.794 269.348 183.14 277.359C168.486 285.37 163.1 303.743 171.111 318.397C179.121 333.051 197.495 338.437 212.149 330.426Z" fill="#9F616A"/>
<path d="M199.903 330.567C192.505 332.343 184.711 331.307 178.034 327.658C171.357 324.01 166.275 318.01 163.774 310.825C161.273 303.639 161.531 295.781 164.499 288.775C167.467 281.77 172.933 276.117 179.835 272.916C185.15 270.543 190.963 269.5 196.771 269.876C205.815 270.352 214.605 273.694 223.657 273.448L224.97 275.557L229.915 274.358L230.974 278.284L232.277 278.239C234.61 282.575 230.856 288.783 225.932 288.73C223.983 288.71 222.14 287.897 220.234 287.489C218.328 287.08 216.083 287.182 214.768 288.622C213.06 290.493 213.804 293.413 214.16 295.921C214.516 298.429 213.626 301.808 211.094 301.89C209.801 301.932 208.571 301.004 207.3 301.248C205.819 301.532 205.071 303.32 205.287 304.811C205.653 306.275 206.251 307.671 207.058 308.946C210.729 316.274 207.629 326.241 200.451 330.195" fill="#2F2E41"/>
<path d="M226.791 360.356L233.979 354.537C233.979 354.537 248.485 353.529 248.223 368.907L271.433 441.511L315.961 457.285L309.961 488.285L246.961 464.285L214.961 411.245L226.791 360.356Z" fill="#1A181B"/>
</g>
<defs>
<clipPath id="clip0_1_2">
<rect width="734.736" height="779.785" fill="white" transform="translate(0.5 0.5)"/>
</clipPath>
</defs>
</svg>
