<svg width="811" height="464" viewBox="0 0 811 464" fill="none" xmlns="http://www.w3.org/2000/svg">
<g clip-path="url(#clip0_1_96)">
<path d="M133.588 210.827V80.8275C133.588 78.9709 134.325 77.1905 135.638 75.8777C136.951 74.565 138.731 73.8275 140.588 73.8275C142.444 73.8275 144.225 74.565 145.537 75.8777C146.85 77.1905 147.588 78.9709 147.588 80.8275V210.827C147.588 212.684 146.85 214.464 145.537 215.777C144.225 217.09 142.444 217.827 140.588 217.827C138.731 217.827 136.951 217.09 135.638 215.777C134.325 214.464 133.588 212.684 133.588 210.827Z" fill="#F0F0F0"/>
<path d="M116.838 210.827V80.8275C116.838 78.9709 117.575 77.1905 118.888 75.8777C120.201 74.565 121.981 73.8275 123.838 73.8275C125.694 73.8275 127.475 74.565 128.787 75.8777C130.1 77.1905 130.838 78.9709 130.838 80.8275V210.827C130.838 212.684 130.1 214.464 128.787 215.777C127.475 217.09 125.694 217.827 123.838 217.827C121.981 217.827 120.201 217.09 118.888 215.777C117.575 214.464 116.838 212.684 116.838 210.827Z" fill="#F0F0F0"/>
<path d="M100.088 210.827V80.8275C100.088 78.9709 100.825 77.1905 102.138 75.8777C103.451 74.565 105.231 73.8275 107.088 73.8275C108.944 73.8275 110.725 74.565 112.037 75.8777C113.35 77.1905 114.088 78.9709 114.088 80.8275V210.827C114.088 212.684 113.35 214.464 112.037 215.777C110.725 217.09 108.944 217.827 107.088 217.827C105.231 217.827 103.451 217.09 102.138 215.777C100.825 214.464 100.088 212.684 100.088 210.827Z" fill="#F0F0F0"/>
<path d="M732.492 418.464C729.673 418.466 726.875 417.98 724.222 417.028L723.812 416.881L724.001 415.975C719.249 406.375 720.91 393.222 728.254 382.408C734.93 372.577 745.083 365.429 754.04 359.124C755.176 358.324 756.526 357.882 757.916 357.856C759.306 357.829 760.671 358.219 761.838 358.974C763.004 359.73 763.918 360.818 764.461 362.097C765.005 363.376 765.153 364.789 764.888 366.153L761.684 382.587C759.373 394.442 756.623 405.663 748.468 412.66C743.988 416.408 738.333 418.462 732.492 418.464Z" fill="#CBF34A"/>
<path d="M753.469 446.861C750.366 446.843 747.318 446.05 744.6 444.554C741.882 443.058 739.58 440.907 737.905 438.296L737.673 437.934L738.226 437.446C739.659 429.628 746.399 422.662 755.449 419.666C763.675 416.943 772.755 417.388 780.761 417.78C781.819 417.831 782.837 418.196 783.688 418.827C784.539 419.458 785.183 420.328 785.539 421.325C785.895 422.323 785.946 423.404 785.687 424.431C785.428 425.458 784.87 426.385 784.084 427.094L775.076 435.225C768.53 441.132 762.002 446.466 754.127 446.848C753.907 446.857 753.688 446.861 753.469 446.861Z" fill="#CBF34A"/>
<path d="M725.513 455.553C724.183 445.648 722.815 435.615 723.748 425.604C724.577 416.712 727.231 408.028 732.633 400.908C735.487 397.147 738.976 393.915 742.943 391.356C743.974 390.691 744.923 392.361 743.897 393.024C737.02 397.488 731.73 404.012 728.785 411.664C725.495 420.219 724.966 429.544 725.533 438.632C725.876 444.127 726.603 449.587 727.335 455.04C727.394 455.284 727.359 455.542 727.237 455.762C727.115 455.982 726.914 456.148 726.675 456.227C726.555 456.26 726.429 456.268 726.305 456.251C726.182 456.235 726.062 456.194 725.954 456.131C725.846 456.069 725.752 455.985 725.676 455.886C725.601 455.787 725.545 455.674 725.513 455.553Z" fill="#F2F2F2"/>
<path d="M721.754 461.247C728.157 449.666 735.583 436.794 748.853 432.68C752.538 431.541 756.409 431.132 760.251 431.477C761.461 431.584 761.159 433.491 759.951 433.384C753.499 432.843 747.061 434.584 741.761 438.304C736.633 441.873 732.639 446.834 729.259 452.096C727.189 455.319 725.335 458.678 723.48 462.034C722.887 463.106 721.154 462.332 721.754 461.247Z" fill="#F2F2F2"/>
<path d="M718.873 461.078L725.338 461.225L686.358 252.988L679.893 254.206L690.072 308.225H657.278L667.457 254.206L660.992 252.988L622.338 461.225L628.477 461.078L648.799 353.225H698.551L718.873 461.078ZM650.306 345.225L655.771 316.225H691.579L697.043 345.225H650.306Z" fill="#CACACA"/>
<path d="M436.588 214.144V145.759C436.588 143.728 439.728 142.077 443.588 142.077C447.448 142.077 450.588 143.728 450.588 145.759V214.144C450.588 216.175 447.448 217.827 443.588 217.827C439.728 217.827 436.588 216.175 436.588 214.144Z" fill="#F0F0F0"/>
<path d="M419.838 214.144V145.759C419.838 143.728 422.978 142.077 426.838 142.077C430.698 142.077 433.838 143.728 433.838 145.759V214.144C433.838 216.175 430.698 217.827 426.838 217.827C422.978 217.827 419.838 216.175 419.838 214.144Z" fill="#F0F0F0"/>
<path d="M403.088 214.144V145.759C403.088 143.728 406.228 142.077 410.088 142.077C413.948 142.077 417.088 143.728 417.088 145.759V214.144C417.088 216.175 413.948 217.827 410.088 217.827C406.228 217.827 403.088 216.175 403.088 214.144Z" fill="#F0F0F0"/>
<path d="M544.002 163.854C543.971 163.646 543.896 163.447 543.783 163.27C543.67 163.093 543.521 162.941 543.345 162.826L490.573 127.987C491.368 127.655 492.033 127.072 492.466 126.327C492.994 125.408 493.136 124.317 492.862 123.293C492.587 122.27 491.919 121.396 491.003 120.863L486.673 118.363C485.753 117.836 484.662 117.694 483.639 117.968C482.615 118.243 481.741 118.911 481.209 119.827C480.921 120.331 480.748 120.892 480.702 121.47L442.608 96.3219C441.329 93.2236 439.389 90.4414 436.925 88.1693C434.46 85.8971 431.53 84.1896 428.338 83.1658V72.0775H414.338V83.1658C409.693 84.6511 405.64 87.5739 402.764 91.5122C399.888 95.4506 398.338 100.201 398.338 105.077V108.077H412.338C412.338 110.464 413.286 112.754 414.974 114.441C416.662 116.129 418.951 117.077 421.338 117.077C423.725 117.077 426.014 116.129 427.702 114.441C429.389 112.754 430.338 110.464 430.338 108.077H444.338V105.077C444.336 103.639 444.201 102.204 443.933 100.792L540.302 164.411L500.271 213.082C499.96 213.08 499.651 213.078 499.338 213.078C496.144 213.078 493.049 213.153 490.1 213.283C490.278 212.789 490.356 212.264 490.329 211.739C490.271 210.681 489.796 209.689 489.008 208.979C488.221 208.27 487.185 207.901 486.126 207.953L481.133 208.213C480.075 208.271 479.082 208.746 478.373 209.533C477.663 210.321 477.294 211.357 477.346 212.416C477.383 213.041 477.569 213.649 477.888 214.188C469.059 215.126 463.338 216.419 463.338 217.077C463.338 218.156 478.701 217.129 497.93 217.08C498.018 217.33 498.171 217.552 498.374 217.723C498.576 217.895 498.82 218.009 499.081 218.055C499.342 218.101 499.611 218.076 499.86 217.984C500.108 217.892 500.328 217.735 500.496 217.53L500.866 217.08C520.039 217.133 535.338 218.154 535.338 217.077C535.338 216.063 521.736 213.539 504.112 213.134L543.677 165.03C543.811 164.868 543.909 164.679 543.965 164.476C544.02 164.274 544.033 164.062 544.002 163.854Z" fill="#474242"/>
<path d="M545.445 461.578H422.229C419.739 461.575 417.352 460.584 415.591 458.823C413.831 457.063 412.84 454.675 412.838 452.185V249.969C412.835 247.744 411.95 245.611 410.377 244.038C408.804 242.465 406.671 241.58 404.446 241.578H116.23C114.005 241.58 111.872 242.465 110.299 244.038C108.725 245.611 107.84 247.744 107.838 249.969V452.185C107.835 454.675 106.844 457.063 105.084 458.823C103.323 460.584 100.936 461.575 98.4457 461.578H94.2299C91.7397 461.575 89.3525 460.584 87.5917 458.823C85.831 457.063 84.8406 454.675 84.8378 452.185V239.078C84.8444 233.112 87.2171 227.393 91.4352 223.175C95.6534 218.957 101.372 216.584 107.338 216.578H532.338C538.303 216.585 544.022 218.957 548.24 223.175C552.458 227.393 554.831 233.112 554.838 239.078V452.185C554.835 454.675 553.844 457.063 552.083 458.823C550.323 460.584 547.935 461.575 545.445 461.578Z" fill="#474242"/>
<path d="M554.338 269.077H413.338V275.077H554.338V269.077Z" fill="white"/>
<path d="M554.338 350.078H413.338V356.078H554.338V350.078Z" fill="white"/>
<path d="M296.621 215.59L292.569 213.884L289.789 193.569H252.769L249.755 213.801L246.13 215.613C245.956 215.7 245.817 215.843 245.735 216.019C245.653 216.194 245.633 216.393 245.677 216.581C245.722 216.77 245.829 216.938 245.981 217.059C246.133 217.179 246.321 217.244 246.515 217.244H296.287C296.486 217.244 296.679 217.176 296.833 217.05C296.986 216.924 297.092 216.749 297.131 216.554C297.171 216.359 297.141 216.157 297.048 215.981C296.955 215.805 296.805 215.667 296.621 215.59Z" fill="#E6E6E6"/>
<path d="M362.409 196.272H180.555C179.601 196.269 178.687 195.889 178.013 195.213C177.339 194.538 176.96 193.623 176.96 192.669V167.025H366.004V192.669C366.004 193.623 365.625 194.538 364.951 195.213C364.277 195.889 363.363 196.269 362.409 196.272Z" fill="#CCCCCC"/>
<path d="M366.194 179.145H176.794V69.4206C176.796 68.2691 177.254 67.1652 178.068 66.351C178.882 65.5367 179.986 65.0787 181.138 65.0775H361.85C363.002 65.0787 364.106 65.5367 364.92 66.351C365.734 67.1652 366.192 68.2691 366.194 69.4206V179.145Z" fill="#1A181B"/>
<path d="M354.882 171.181H188.106C187.219 171.18 186.368 170.827 185.74 170.199C185.112 169.572 184.759 168.72 184.758 167.833V76.3896C184.759 75.5018 185.112 74.6507 185.74 74.0229C186.368 73.3952 187.219 73.0421 188.106 73.0411H354.882C355.769 73.0421 356.62 73.3952 357.248 74.0229C357.876 74.6507 358.229 75.5018 358.23 76.3896V167.833C358.229 168.72 357.876 169.572 357.248 170.199C356.62 170.827 355.769 171.18 354.882 171.181Z" fill="white"/>
<path d="M541.839 83.5387C543.435 83.3088 545.061 83.4315 546.604 83.8982C548.147 84.3649 549.568 85.1641 550.769 86.2397C551.969 87.3152 552.919 88.6409 553.552 90.1234C554.185 91.6058 554.485 93.209 554.431 94.8199L590.996 108.894L574.43 120.731L542.247 105.551C539.546 105.281 537.039 104.03 535.199 102.034C533.36 100.039 532.316 97.4387 532.266 94.7255C532.216 92.0122 533.163 89.3748 534.927 87.313C536.691 85.2512 539.151 83.9083 541.839 83.5387Z" fill="#9E616A"/>
<path d="M680.677 76.6295L686.863 87.8763C685.368 95.0096 681.505 101.428 675.9 106.087C666.429 114.075 616.909 143.824 616.909 143.824L554.391 112.438L565.328 97.9052L614.41 114.354C632.617 97.1611 654.589 84.459 678.574 77.2606L680.677 76.6295Z" fill="#E4E4E4"/>
<path d="M669.174 262.734C696.121 262.734 717.965 255.616 717.965 246.836C717.965 238.056 696.121 230.938 669.174 230.938C642.228 230.938 620.384 238.056 620.384 246.836C620.384 255.616 642.228 262.734 669.174 262.734Z" fill="#CACACA"/>
<path d="M559.717 447.605L546.761 444.024L554.409 392.346L573.531 397.633L559.717 447.605Z" fill="#9E616A"/>
<path d="M559.549 461.077L517.774 449.529L517.92 449.001C519.112 444.689 521.969 441.026 525.861 438.82C529.753 436.614 534.362 436.043 538.675 437.235L538.676 437.235L564.191 444.289L559.549 461.077Z" fill="#1A181B"/>
<path d="M522.153 447.773L509.856 442.343L524.948 392.331L543.096 400.344L522.153 447.773Z" fill="#9E616A"/>
<path d="M520.026 461.078L480.377 443.57L480.598 443.068C482.406 438.975 485.765 435.768 489.937 434.152C494.109 432.536 498.752 432.643 502.845 434.45L502.846 434.45L527.062 445.143L520.026 461.078Z" fill="#1A181B"/>
<path d="M707.146 207.967C707.146 207.967 713.664 228.16 673.675 253.697L622.174 305.016L568.661 433.022L536.892 418.779L543.123 402.147L547.304 390.986L549.443 385.277L551.736 379.156L585.748 288.369L614.318 238.346L615.146 211.203L622.174 192.069L673.157 173.978L707.146 207.967Z" fill="#1A181B"/>
<path d="M681.146 208.967C681.146 208.967 687.664 229.16 647.675 254.697L596.174 306.016L542.661 434.022L510.892 419.779L517.123 403.147L521.304 391.986L523.443 386.277L525.736 380.156L559.748 289.369L569.314 272.62C581.933 250.524 597.268 230.094 614.96 211.805L624.338 202.111L625.338 187.111L647.157 174.978L681.146 208.967Z" fill="#1A181B"/>
<path d="M650.338 110.111L666.338 76.1112L694.259 72.3024C694.259 72.3024 716.062 100.079 710.338 139.111C708.191 153.748 706.442 168.32 706.338 181.111C706.31 184.515 709.287 186.034 709.338 189.111C709.387 192.134 703.695 197.057 705.338 199.111C707.687 201.942 709.087 205.441 709.338 209.111C707.356 213.827 647.382 188.277 622.174 192.069L650.338 110.111Z" fill="#E4E4E4"/>
<path d="M689.996 55.1853C697.123 43.196 693.181 27.6991 681.192 20.5721C669.202 13.4451 653.705 17.3869 646.578 29.3762C639.451 41.3656 643.393 56.8624 655.382 63.9894C667.372 71.1164 682.869 67.1747 689.996 55.1853Z" fill="#9E616A"/>
<path d="M684.433 33.213C684.385 33.8775 684.318 34.7576 684.241 35.7533C684.162 38.479 684.931 41.1621 686.44 43.4332C687.853 45.8226 686.167 60.254 686.167 60.254C727.535 31.4177 694.848 2.44707 682.062 5.02236C682.329 1.35523 671.9 2.80797 671.9 2.80797C667.927 -3.37985 659.219 4.83397 659.219 4.83397L660.899 2.00704C654.138 3.72676 647.455 24.6224 647.455 24.6224C649.748 33.637 684.7 29.5459 684.433 33.213Z" fill="#2F2E41"/>
<path d="M523.953 123.486C538.168 104.577 549.406 83.604 557.276 61.295C557.732 59.9606 557.7 58.5077 557.185 57.1949C556.67 55.8821 555.706 54.7947 554.464 54.1261L505.819 28.0609C505.032 27.636 504.158 27.3963 503.265 27.3601C502.371 27.3238 501.481 27.4919 500.662 27.8516C499.828 28.214 499.088 28.762 498.497 29.4537C497.907 30.1454 497.482 30.9627 497.255 31.8434C491.593 53.341 480.951 73.2039 466.188 89.8252C465.58 90.5018 465.135 91.308 464.886 92.1827C464.637 93.0574 464.591 93.9773 464.751 94.8725C464.905 95.7535 465.258 96.5877 465.783 97.3116C466.308 98.0355 466.991 98.63 467.781 99.0499L516.427 125.115C517.671 125.779 519.11 125.979 520.488 125.681C521.867 125.382 523.094 124.605 523.953 123.486Z" fill="#CCCCCC"/>
<path d="M520.633 120.992C520.372 121.318 520.004 121.543 519.594 121.628C519.184 121.713 518.758 121.651 518.388 121.455L469.743 95.3895C469.506 95.2664 469.302 95.0902 469.145 94.8748C468.988 94.6594 468.884 94.4106 468.839 94.148C468.789 93.8707 468.803 93.5854 468.881 93.3145C468.959 93.0437 469.099 92.7946 469.289 92.5868C484.487 75.4758 495.443 55.0276 501.272 32.8965C501.339 32.6231 501.469 32.369 501.651 32.154C501.833 31.9391 502.063 31.7693 502.321 31.6577C502.565 31.5488 502.83 31.4978 503.097 31.5088C503.364 31.5199 503.624 31.5926 503.858 31.7213L552.503 57.7863C552.871 57.9854 553.159 58.307 553.315 58.6955C553.472 59.0839 553.488 59.5149 553.36 59.9139C545.631 81.8235 534.594 102.421 520.633 120.992Z" fill="white"/>
<path d="M503.615 56.4856L537.167 76.1517C540.505 78.1084 543.528 72.9245 540.195 70.9709L506.643 51.3047C503.305 49.348 500.282 54.532 503.615 56.4856Z" fill="#111629"/>
<path d="M497.615 67.4856L531.167 87.1517C534.505 89.1084 537.528 83.9245 534.195 81.9709L500.643 62.3047C497.305 60.348 494.282 65.532 497.615 67.4856Z" fill="#111629"/>
<path d="M490.615 79.4856L524.167 99.1518C527.505 101.108 530.528 95.9245 527.195 93.9709L493.643 74.3047C490.305 72.3481 487.282 77.532 490.615 79.4856Z" fill="#111629"/>
<path d="M483.615 89.4856L517.167 109.152C520.505 111.108 523.528 105.925 520.195 103.971L486.643 84.3047C483.305 82.3481 480.282 87.532 483.615 89.4856Z" fill="#111629"/>
<path d="M636.569 205.164L649.166 233.489C649.47 234.168 649.6 234.911 649.544 235.652C649.488 236.393 649.249 237.108 648.847 237.733C648.374 238.48 647.69 239.07 646.882 239.43C646.075 239.789 645.178 239.901 644.307 239.752C644.01 239.707 643.719 239.629 643.439 239.52C642.325 239.09 641.428 238.237 640.942 237.146L628.346 208.821C628.106 208.281 627.974 207.699 627.959 207.108C627.944 206.518 628.045 205.93 628.257 205.378C628.685 204.264 629.539 203.366 630.629 202.881C631.72 202.396 632.958 202.364 634.072 202.792C635.186 203.22 636.084 204.073 636.569 205.164Z" fill="#6C63FF"/>
<path d="M648.15 231.205L650.673 236.922L651.964 245.027C652.049 245.56 651.956 246.107 651.698 246.582C651.44 247.057 651.033 247.434 650.539 247.653C650.046 247.873 649.493 247.923 648.968 247.796C648.443 247.669 647.974 247.372 647.635 246.952L642.413 240.454L639.926 234.862L648.15 231.205Z" fill="#3F3D56"/>
<path d="M625.547 197.283L627.352 208.623C627.411 208.995 627.554 209.347 627.771 209.654C627.989 209.961 628.273 210.214 628.604 210.394C628.934 210.573 629.301 210.674 629.677 210.689C630.053 210.703 630.427 210.632 630.77 210.479L632.56 209.683L636.014 217.45C636.122 217.692 636.321 217.881 636.569 217.976C636.816 218.071 637.091 218.063 637.333 217.956C637.575 217.848 637.764 217.649 637.86 217.401C637.955 217.154 637.948 216.879 637.841 216.637L634.387 208.87L636.177 208.075C636.77 207.81 637.234 207.322 637.468 206.716C637.702 206.11 637.687 205.437 637.425 204.842C637.337 204.645 637.224 204.461 637.089 204.293L629.877 195.358C629.538 194.937 629.069 194.641 628.544 194.514C628.018 194.387 627.466 194.438 626.972 194.657C626.478 194.877 626.071 195.253 625.813 195.728C625.555 196.203 625.462 196.75 625.547 197.283Z" fill="#3F3D56"/>
<path d="M630.772 217.752C631.056 216.165 631.684 214.66 632.613 213.342C633.541 212.025 634.747 210.927 636.146 210.126C637.545 209.325 639.102 208.84 640.708 208.706C642.314 208.572 643.931 208.792 645.443 209.35L670.309 179.072L676.33 198.521L651.794 224.292C650.688 226.77 648.711 228.756 646.239 229.875C643.766 230.993 640.969 231.165 638.378 230.359C635.787 229.553 633.581 227.824 632.179 225.5C630.778 223.177 630.277 220.42 630.772 217.752Z" fill="#9E616A"/>
<path d="M662.077 215.784L651.125 199.965L682.224 158.499L666.203 124.169L667.37 83.3343L680.608 80.8888L680.773 80.9712C687.209 84.676 692.184 90.4711 694.872 97.394C698.175 105.65 705.547 136.644 709.648 154.384C710.454 157.822 710.365 161.409 709.392 164.803C708.419 168.197 706.593 171.285 704.088 173.773L662.077 215.784Z" fill="#E4E4E4"/>
<path d="M353.714 139.346C353.623 140.114 353.592 140.888 353.623 141.661L297.55 182.455L282.146 175.638L268.818 197.541L294.916 212.26C297.025 213.45 299.462 213.923 301.862 213.609C304.262 213.295 306.496 212.211 308.227 210.519L364.663 155.396C367.551 156.13 370.595 155.967 373.389 154.929C376.183 153.891 378.594 152.027 380.303 149.585C382.012 147.143 382.936 144.238 382.954 141.258C382.972 138.277 382.081 135.362 380.402 132.9C378.722 130.438 376.333 128.545 373.552 127.474C370.77 126.403 367.729 126.204 364.831 126.904C361.934 127.604 359.319 129.169 357.333 131.391C355.347 133.614 354.084 136.388 353.714 139.346Z" fill="#FFB6B6"/>
<path d="M295.737 183.947L279.385 211.195C278.92 211.97 278.293 212.636 277.547 213.147C276.801 213.658 275.954 214.002 275.063 214.157C274.172 214.311 273.258 214.271 272.384 214.04C271.51 213.81 270.696 213.393 269.997 212.819L245.514 192.712C241.562 190.309 238.724 186.436 237.622 181.944C236.52 177.452 237.245 172.706 239.636 168.746C242.028 164.787 245.892 161.938 250.381 160.823C254.87 159.708 259.619 160.419 263.585 162.799L292.754 174.898C293.589 175.245 294.34 175.767 294.955 176.43C295.57 177.093 296.034 177.881 296.317 178.739C296.601 179.598 296.695 180.508 296.595 181.406C296.495 182.305 296.202 183.171 295.737 183.947Z" fill="#6C63FF"/>
<path d="M225.674 420.783H257.727V367.667H225.674V420.783Z" fill="#CACACA"/>
<path d="M256.12 395.773L252.006 401.836L328.932 454.035L333.046 447.972L256.12 395.773Z" fill="#CACACA"/>
<path d="M227.28 395.773L150.354 447.973L154.468 454.035L231.394 401.836L227.28 395.773Z" fill="#CACACA"/>
<path d="M330.989 461.077C336.553 461.077 341.063 456.567 341.063 451.004C341.063 445.44 336.553 440.93 330.989 440.93C325.426 440.93 320.916 445.44 320.916 451.004C320.916 456.567 325.426 461.077 330.989 461.077Z" fill="#CACACA"/>
<path d="M241.242 461.077C246.806 461.077 251.316 456.567 251.316 451.004C251.316 445.44 246.806 440.93 241.242 440.93C235.679 440.93 231.169 445.44 231.169 451.004C231.169 456.567 235.679 461.077 241.242 461.077Z" fill="#CACACA"/>
<path d="M152.411 461.077C157.975 461.077 162.485 456.567 162.485 451.004C162.485 445.44 157.975 440.93 152.411 440.93C146.848 440.93 142.338 445.44 142.338 451.004C142.338 456.567 146.848 461.077 152.411 461.077Z" fill="#CACACA"/>
<path d="M244.906 398.804H237.579V451.004H244.906V398.804Z" fill="#CACACA"/>
<path d="M234.832 391.478H248.569V320.962H234.832V391.478Z" fill="#CACACA"/>
<path d="M202.322 331.952V315.468C202.325 312.433 203.532 309.523 205.678 307.377C207.824 305.231 210.734 304.024 213.769 304.02H275.126C278.161 304.024 281.071 305.231 283.217 307.377C285.363 309.523 286.57 312.433 286.574 315.468V331.952C286.57 334.987 285.363 337.896 283.217 340.043C281.071 342.189 278.161 343.396 275.126 343.399H213.769C210.734 343.396 207.824 342.189 205.678 340.043C203.532 337.896 202.325 334.987 202.322 331.952Z" fill="#37322F"/>
<path d="M313.141 444.629L330.109 444.628L338.183 400.617L313.139 400.618L313.141 444.629Z" fill="#FFB8B8"/>
<path d="M308.813 461.078L363.528 461.076V460.383C363.528 457.587 362.978 454.817 361.907 452.234C360.837 449.65 359.269 447.302 357.291 445.325C355.314 443.347 352.966 441.778 350.382 440.708C347.798 439.638 345.029 439.087 342.233 439.087H342.23L308.812 439.088L308.813 461.078Z" fill="#1A181B"/>
<path d="M338.521 417.337L372.35 341.476C375.175 335.083 375.487 327.859 373.225 321.246C370.963 314.632 366.293 309.113 360.144 305.788L286.767 266.441L253.284 263.593L222.398 260.785L222.175 261.162C221.89 261.643 215.249 273.114 219.738 285.691C223.143 295.231 232 302.683 246.063 307.84C278.886 319.875 316.804 330.162 331.582 334.025C332.236 334.192 332.846 334.495 333.373 334.915C333.901 335.335 334.334 335.861 334.643 336.46C334.953 337.052 335.137 337.702 335.184 338.369C335.231 339.036 335.139 339.705 334.915 340.334L303.486 410.945C303.158 411.84 303.04 412.799 303.141 413.748C303.242 414.696 303.559 415.609 304.068 416.415C304.578 417.221 305.266 417.9 306.079 418.398C306.892 418.897 307.809 419.202 308.759 419.29L332.242 421C332.442 421.019 332.64 421.028 332.838 421.028C334.04 421.028 335.217 420.679 336.226 420.024C337.235 419.369 338.032 418.436 338.521 417.337Z" fill="#1A181B"/>
<path d="M302.068 444.629L319.036 444.628L327.11 400.617L302.066 400.618L302.068 444.629Z" fill="#FFB8B8"/>
<path d="M297.74 461.078L352.455 461.076V460.383C352.455 457.587 351.905 454.817 350.834 452.234C349.764 449.65 348.196 447.302 346.218 445.325C344.241 443.347 341.893 441.778 339.309 440.708C336.725 439.638 333.956 439.087 331.16 439.087H331.157L297.739 439.088L297.74 461.078Z" fill="#1A181B"/>
<path d="M326.064 421.489L359.893 345.629C362.718 339.235 363.03 332.012 360.768 325.398C358.506 318.784 353.836 313.265 347.687 309.94L274.31 270.593L240.827 267.745L216.635 265.646L216.638 265.315C216.354 265.796 209.713 277.266 214.202 289.844C217.607 299.384 219.543 306.836 233.605 311.992C266.429 324.028 304.347 334.314 319.125 338.177C319.778 338.344 320.389 338.647 320.916 339.067C321.444 339.487 321.876 340.014 322.186 340.613C322.496 341.205 322.68 341.855 322.727 342.521C322.774 343.188 322.682 343.857 322.457 344.487L291.029 415.097C290.701 415.993 290.582 416.952 290.683 417.9C290.784 418.849 291.102 419.761 291.611 420.567C292.121 421.374 292.809 422.052 293.622 422.551C294.435 423.049 295.352 423.354 296.301 423.442L319.785 425.152C319.985 425.171 320.183 425.181 320.381 425.181C321.583 425.18 322.76 424.831 323.769 424.176C324.777 423.521 325.575 422.588 326.064 421.489Z" fill="#1A181B"/>
<path d="M304.844 94.7388C309.188 76.473 297.902 58.1443 279.636 53.8004C261.37 49.4566 243.041 60.7425 238.698 79.0082C234.354 97.274 245.64 115.603 263.905 119.947C282.171 124.29 300.5 113.005 304.844 94.7388Z" fill="#FFB8B8"/>
<path d="M388.953 217.486C403.168 198.577 414.406 177.604 422.276 155.295C422.732 153.961 422.7 152.508 422.185 151.195C421.67 149.882 420.706 148.795 419.464 148.126L370.819 122.061C370.032 121.636 369.158 121.396 368.265 121.36C367.371 121.324 366.481 121.492 365.662 121.852C364.828 122.214 364.088 122.762 363.497 123.454C362.907 124.145 362.482 124.963 362.255 125.843C356.593 147.341 345.951 167.204 331.188 183.825C330.58 184.502 330.135 185.308 329.886 186.183C329.637 187.057 329.591 187.977 329.751 188.873C329.905 189.753 330.258 190.588 330.783 191.312C331.308 192.036 331.991 192.63 332.781 193.05L381.427 219.115C382.671 219.779 384.11 219.979 385.488 219.681C386.867 219.382 388.094 218.605 388.953 217.486Z" fill="#CCCCCC"/>
<path d="M385.633 214.992C385.372 215.318 385.004 215.543 384.594 215.628C384.184 215.713 383.758 215.652 383.388 215.455L334.743 189.39C334.506 189.266 334.302 189.09 334.145 188.875C333.988 188.659 333.884 188.411 333.839 188.148C333.789 187.871 333.803 187.585 333.881 187.315C333.959 187.044 334.099 186.795 334.289 186.587C349.487 169.476 360.443 149.028 366.272 126.897C366.339 126.623 366.469 126.369 366.651 126.154C366.833 125.939 367.063 125.769 367.321 125.658C367.565 125.549 367.83 125.498 368.097 125.509C368.364 125.52 368.624 125.593 368.858 125.721L417.503 151.786C417.871 151.985 418.159 152.307 418.315 152.696C418.472 153.084 418.488 153.515 418.36 153.914C410.631 175.824 399.594 196.421 385.633 214.992Z" fill="white"/>
<path d="M368.615 150.486L402.167 170.152C405.505 172.108 408.528 166.925 405.195 164.971L371.643 145.305C368.305 143.348 365.282 148.532 368.615 150.486Z" fill="#CCCCCC"/>
<path d="M362.615 161.486L396.167 181.152C399.505 183.108 402.528 177.925 399.195 175.971L365.643 156.305C362.305 154.348 359.282 159.532 362.615 161.486Z" fill="#CCCCCC"/>
<path d="M357.9 172.443L388.414 190.557C391.45 192.36 394.697 188.634 391.666 186.834L361.152 168.719C358.116 166.917 354.869 170.643 357.9 172.443Z" fill="#CCCCCC"/>
<path d="M348.615 183.486L382.167 203.152C385.505 205.108 388.528 199.925 385.195 197.971L351.643 178.305C348.305 176.348 345.282 181.532 348.615 183.486Z" fill="#CCCCCC"/>
<path d="M291.372 269.194L224.098 268.792L224.08 268.313C222.797 234.56 226.922 203.983 236.691 174.839C236.829 173.748 236.979 172.582 237.125 171.437C238.794 158.398 240.119 148.046 252.518 144.19C251.485 142.817 250.876 141.171 250.766 139.456C250.688 138.316 250.837 137.172 251.206 136.091C251.574 135.009 252.154 134.012 252.911 133.156C253.636 132.33 254.518 131.657 255.505 131.175C256.493 130.693 257.567 130.412 258.664 130.35L282.609 129.534C283.867 129.526 285.092 129.941 286.086 130.713C287.909 132.067 289.19 134.026 289.7 136.239C290.21 138.452 289.916 140.774 288.869 142.79C288.587 143.352 288.479 143.607 288.438 143.719C289.289 148.179 291.815 153.477 294.488 159.083C298.315 167.11 302.653 176.208 303.768 185.941C304.37 191.197 304.12 196.515 303.027 201.69C302.528 204.479 302.413 207.323 302.685 210.143C302.904 214.325 303.11 218.273 300.747 222.092C300.144 223.127 299.455 224.23 298.646 225.453L295.321 233.401L291.372 269.194Z" fill="#CBF34A"/>
<path d="M190.416 316.431V178.969C190.421 174.49 192.203 170.195 195.37 167.028C198.538 163.861 202.832 162.079 207.311 162.074H211.984C216.464 162.079 220.758 163.861 223.925 167.028C227.093 170.195 228.874 174.49 228.879 178.969V316.431C228.874 320.91 227.093 325.204 223.925 328.372C220.758 331.539 216.464 333.32 211.984 333.326H207.311C202.832 333.32 198.538 331.539 195.37 328.372C192.203 325.204 190.421 320.91 190.416 316.431Z" fill="#37322F"/>
<path d="M370.82 192.689C370.338 193.293 369.903 193.935 369.521 194.608L300.363 199.657L290.878 185.736L267.997 197.304L282.393 223.582C283.556 225.704 285.377 227.393 287.581 228.393C289.785 229.393 292.254 229.652 294.618 229.129L371.647 212.1C373.713 214.249 376.384 215.717 379.305 216.31C382.226 216.903 385.259 216.593 387.999 215.421C390.739 214.248 393.058 212.269 394.646 209.747C396.234 207.225 397.017 204.279 396.89 201.302C396.763 198.324 395.733 195.455 393.936 193.077C392.139 190.699 389.66 188.925 386.83 187.99C384 187.055 380.953 187.004 378.093 187.843C375.233 188.682 372.696 190.373 370.82 192.689Z" fill="#FFB6B6"/>
<path d="M298.036 199.967L269.765 214.478C268.96 214.891 268.076 215.126 267.173 215.166C266.27 215.207 265.368 215.052 264.53 214.713C263.692 214.373 262.937 213.857 262.316 213.2C261.696 212.542 261.224 211.759 260.933 210.903L250.753 180.901C248.665 176.783 248.294 172.005 249.719 167.613C251.145 163.221 254.252 159.573 258.361 157.466C245.829 163.898 271.929 145.626 281.891 165.034L300.279 190.707C300.805 191.442 301.167 192.282 301.339 193.17C301.512 194.057 301.491 194.972 301.278 195.85C301.065 196.729 300.665 197.552 300.106 198.262C299.546 198.972 298.84 199.554 298.036 199.967Z" fill="#CBF34A"/>
<path d="M256.413 119.938C254.367 119.938 252.11 118.952 249.564 116.954C242.074 111.073 236.72 102.896 234.324 93.6791C231.928 84.4621 232.621 74.7134 236.299 65.9286C238.15 61.5077 241.611 55.4989 247.591 51.9774C251.89 49.4472 256.94 48.5331 261.336 47.8749C265.141 47.3046 268.995 46.8505 272.789 46.5272C277.322 46.1395 282.559 45.8778 287.335 47.6923C290.834 49.0223 293.813 51.371 296.693 53.6425C297.697 54.4335 298.735 55.2528 299.775 56.0106C302.295 57.976 305.2 59.3873 308.303 60.1522C308.957 60.2879 309.575 60.5626 310.115 60.9577C310.654 61.3527 311.102 61.859 311.429 62.4422C311.763 63.0351 311.965 63.6926 312.023 64.3703C312.08 65.0481 311.992 65.7303 311.763 66.3709C311.314 67.6307 310.908 68.7664 311.729 69.9969C312.033 70.4304 312.438 70.7827 312.91 71.0231C313.382 71.2635 313.905 71.3846 314.435 71.3758C314.714 71.3713 314.99 71.4366 315.238 71.5659C315.486 71.6952 315.697 71.8843 315.853 72.1161C316.011 72.3458 316.111 72.6108 316.144 72.8879C316.176 73.1651 316.14 73.4459 316.039 73.7059L315.907 74.0448C316.259 74.0776 316.598 74.1954 316.894 74.3882C317.19 74.5809 317.435 74.8428 317.608 75.1512C317.865 75.5904 317.964 76.1041 317.889 76.6073C317.814 77.1105 317.57 77.5731 317.197 77.9188C314.163 80.8065 310.381 82.786 306.279 83.6327C303.472 84.1833 300.584 84.1767 297.78 83.6132L297.329 83.5252L297.384 83.0252C286.04 78.9793 275.8 85.8456 269.963 93.6952L269.12 93.1629C269.264 92.8704 269.349 92.5516 269.367 92.2257C269.385 91.8997 269.338 91.5735 269.227 91.2665C269.109 90.8981 268.92 90.5564 268.67 90.2612C268.421 89.9659 268.115 89.7228 267.771 89.5457C267.076 89.2589 266.311 89.1845 265.574 89.3317C264.836 89.4789 264.159 89.8412 263.627 90.3729C263.085 90.9406 262.668 91.6149 262.401 92.3528C262.134 93.0908 262.024 93.8762 262.078 94.659C262.231 96.3183 262.654 97.9414 263.329 99.4647C263.603 100.193 263.887 100.947 264.118 101.707C265.41 106.023 265.066 110.664 263.151 114.742C262.267 116.602 260.669 118.974 258.075 119.71C257.534 119.862 256.975 119.939 256.413 119.938Z" fill="#2F2E41"/>
<path d="M808.985 463.077H1.69066C1.37547 463.077 1.0735 462.951 0.850952 462.727C0.6284 462.504 0.503418 462.202 0.503418 461.887C0.503418 461.572 0.6284 461.269 0.850952 461.046C1.0735 460.823 1.37547 460.697 1.69066 460.696H808.985C809.3 460.696 809.603 460.822 809.827 461.045C810.05 461.268 810.175 461.571 810.175 461.887C810.175 462.203 810.05 462.505 809.827 462.729C809.603 462.952 809.3 463.077 808.985 463.077Z" fill="#CACACA"/>
</g>
<defs>
<clipPath id="clip0_1_96">
<rect width="809.675" height="462.577" fill="white" transform="translate(0.5 0.5)"/>
</clipPath>
</defs>
</svg>
