<svg width="857" height="560" viewBox="0 0 857 560" fill="none" xmlns="http://www.w3.org/2000/svg">
<g clip-path="url(#clip0_33_4)">
<path d="M505.671 36.9561H411.027V38.7591H505.671V36.9561Z" fill="#CCCCCC"/>
<path d="M337.114 36.9561H36.9561V38.7591H337.114V36.9561Z" fill="#CCCCCC"/>
<path d="M36.956 74.813C57.3662 74.813 73.912 58.2672 73.912 37.857C73.912 17.4468 57.3662 0.901001 36.956 0.901001C16.5458 0.901001 0 17.4468 0 37.857C0 58.2672 16.5458 74.813 36.956 74.813Z" fill="#E16541"/>
<path d="M205.513 74.813C225.923 74.813 242.469 58.2672 242.469 37.857C242.469 17.4468 225.923 0.901001 205.513 0.901001C185.103 0.901001 168.557 17.4468 168.557 37.857C168.557 58.2672 185.103 74.813 205.513 74.813Z" fill="#474242"/>
<path d="M374.066 75.716C366.578 75.716 359.259 73.4957 353.033 69.3358C346.808 65.1759 341.955 59.2633 339.09 52.3456C336.224 45.428 335.475 37.816 336.935 30.4723C338.396 23.1285 342.002 16.3829 347.296 11.0884C352.591 5.79383 359.337 2.18821 366.68 0.727451C374.024 -0.733309 381.636 0.0163956 388.554 2.88178C395.471 5.74716 401.384 10.5995 405.544 16.8252C409.704 23.0509 411.924 30.3704 411.924 37.858C411.924 47.8986 407.935 57.5279 400.836 64.6277C393.736 71.7274 384.107 75.716 374.066 75.716ZM374.066 1.80301C366.935 1.80301 359.964 3.91761 354.035 7.87938C348.106 11.8412 343.484 17.4722 340.756 24.0604C338.027 30.6486 337.313 37.898 338.704 44.892C340.095 51.886 343.529 58.3104 348.571 63.3527C353.614 68.3951 360.038 71.829 367.032 73.2202C374.026 74.6114 381.275 73.8974 387.864 71.1685C394.452 68.4396 400.083 63.8183 404.045 57.8891C408.006 51.9599 410.121 44.989 410.121 37.858C410.121 28.2956 406.322 19.1249 399.561 12.3633C392.799 5.60166 383.628 1.80301 374.066 1.80301Z" fill="#CCCCCC"/>
<path d="M542.623 75.716C535.136 75.716 527.816 73.4957 521.59 69.3358C515.365 65.1759 510.512 59.2633 507.647 52.3456C504.782 45.428 504.032 37.816 505.493 30.4723C506.953 23.1285 510.559 16.3829 515.853 11.0884C521.148 5.79383 527.894 2.18821 535.237 0.727451C542.581 -0.733309 550.193 0.0163956 557.111 2.88178C564.028 5.74716 569.941 10.5995 574.101 16.8252C578.261 23.0509 580.481 30.3704 580.481 37.858C580.481 47.8986 576.493 57.5279 569.393 64.6277C562.293 71.7274 552.664 75.716 542.623 75.716ZM542.623 1.80301C535.492 1.80301 528.521 3.91761 522.592 7.87938C516.663 11.8412 512.042 17.4722 509.313 24.0604C506.584 30.6486 505.87 37.898 507.261 44.892C508.652 51.886 512.086 58.3104 517.128 63.3527C522.171 68.3951 528.595 71.829 535.589 73.2202C542.583 74.6114 549.833 73.8974 556.421 71.1685C563.009 68.4396 568.64 63.8183 572.602 57.8891C576.564 51.9599 578.678 44.989 578.678 37.858C578.678 33.1232 577.745 28.4348 575.934 24.0604C574.122 19.686 571.466 15.7113 568.118 12.3633C564.77 9.01527 560.795 6.35947 556.421 4.54753C552.046 2.7356 547.358 1.80301 542.623 1.80301Z" fill="#CCCCCC"/>
<path d="M34.111 48.876C33.4618 48.8765 32.83 48.6659 32.311 48.276L32.279 48.252L25.496 43.064C24.8616 42.5776 24.4464 41.8591 24.3417 41.0665C24.2371 40.274 24.4516 39.4724 24.938 38.838C25.4244 38.2036 26.1429 37.7884 26.9354 37.6837C27.7279 37.5791 28.5296 37.7936 29.164 38.28L33.557 41.649L43.938 28.105C44.4241 27.4709 45.1423 27.0559 45.9344 26.9513C46.7266 26.8466 47.5278 27.0609 48.162 27.547L48.098 27.636L48.164 27.547C48.7975 28.0338 49.212 28.7521 49.3164 29.5443C49.4208 30.3364 49.2067 31.1376 48.721 31.772L36.51 47.695C36.2271 48.0621 35.8635 48.3591 35.4472 48.5629C35.031 48.7667 34.5734 48.8717 34.11 48.87L34.111 48.876Z" fill="white"/>
<path d="M656.58 195.96C657.271 196.276 657.935 196.646 658.567 197.068L721.721 170.114L723.974 153.478L749.209 153.323L747.718 191.481L664.361 213.528C664.185 214.107 663.975 214.675 663.73 215.228C662.525 217.8 660.586 219.958 658.159 221.431C655.731 222.905 652.922 223.628 650.084 223.51C647.247 223.393 644.507 222.439 642.21 220.77C639.912 219.1 638.159 216.789 637.171 214.127C636.183 211.464 636.003 208.569 636.655 205.805C637.307 203.041 638.76 200.531 640.834 198.59C642.908 196.649 645.508 195.365 648.31 194.897C651.111 194.43 653.988 194.801 656.579 195.963L656.58 195.96Z" fill="#FEB8B8"/>
<path d="M758.386 541.721H741.123L732.911 475.137H758.388L758.386 541.721Z" fill="#FEB8B8"/>
<path d="M728.793 536.789H762.085V557.744H707.831C707.831 552.185 710.04 546.853 713.971 542.922C717.902 538.991 723.234 536.782 728.793 536.782V536.789Z" fill="black"/>
<path d="M825.522 536.844L808.344 538.534L793.644 473.076L818.999 470.585L825.522 536.844Z" fill="#FEB8B8"/>
<path d="M795.578 534.84L828.704 531.577L830.758 552.434L776.777 557.751C776.232 552.22 777.907 546.699 781.432 542.402C784.958 538.106 790.046 535.386 795.577 534.84H795.578Z" fill="black"/>
<path d="M763.191 82.854C782.291 82.854 797.774 67.3707 797.774 48.271C797.774 29.1713 782.291 13.688 763.191 13.688C744.091 13.688 728.608 29.1713 728.608 48.271C728.608 67.3707 744.091 82.854 763.191 82.854Z" fill="#FEB8B8"/>
<path d="M737.265 528.255C735.781 528.258 734.344 527.737 733.207 526.784C732.069 525.83 731.305 524.506 731.048 523.045C722.119 473.455 692.907 311.273 692.208 306.777C692.192 306.674 692.185 306.569 692.185 306.465V294.371C692.184 293.931 692.322 293.501 692.578 293.143L696.436 287.743C696.62 287.483 696.86 287.268 697.139 287.116C697.419 286.963 697.729 286.877 698.047 286.863C720.047 285.832 792.083 282.809 795.563 287.157C799.058 291.522 797.816 304.768 797.534 307.377L797.548 307.649L829.914 514.631C830.168 516.282 829.76 517.966 828.781 519.32C827.802 520.673 826.329 521.586 824.681 521.861L804.467 525.191C802.962 525.433 801.419 525.126 800.121 524.327C798.822 523.528 797.853 522.289 797.391 520.836C791.139 500.858 770.175 433.652 762.909 407.646C762.87 407.475 762.768 407.324 762.623 407.225C762.478 407.125 762.3 407.084 762.126 407.109C761.952 407.134 761.794 407.224 761.683 407.361C761.572 407.497 761.517 407.67 761.528 407.846C761.891 432.636 762.768 495.882 763.077 517.727L763.109 520.08C763.122 521.673 762.538 523.213 761.471 524.395C760.404 525.578 758.932 526.317 757.346 526.467L737.854 528.233C737.658 528.25 737.462 528.257 737.265 528.255Z" fill="#1A181B"/>
<path d="M741.243 96.453C735.208 100.041 731.596 106.633 729.524 113.353C725.687 125.774 723.378 138.616 722.647 151.595L720.456 190.454L693.343 293.482C716.843 313.365 730.396 308.845 762.029 292.582C793.662 276.319 797.276 298.004 797.276 298.004L803.601 210.341L812.638 114.548C810.609 112.105 808.313 109.898 805.792 107.967C797.439 101.47 787.721 96.9541 777.369 94.7589C767.017 92.5637 756.302 92.7466 746.031 95.294L741.243 96.453Z" fill="#E6E6E6"/>
<path d="M732.437 216.767C733.166 217.04 733.872 217.369 734.549 217.753L796.996 186.494L798.032 169.561L823.791 167.785L825.171 206.385L741.721 233.985C741.04 236.909 739.485 239.557 737.263 241.576C735.04 243.595 732.256 244.889 729.28 245.286C726.304 245.684 723.277 245.166 720.603 243.801C717.928 242.437 715.733 240.29 714.308 237.647C712.884 235.004 712.297 231.99 712.628 229.006C712.958 226.021 714.19 223.209 716.158 220.941C718.126 218.674 720.738 217.059 723.646 216.313C726.554 215.566 729.621 215.723 732.438 216.762L732.437 216.767Z" fill="#FEB8B8"/>
<path d="M812.188 114.98C827.551 120.402 830.259 179.151 830.259 179.151C812.184 169.21 790.494 185.477 790.494 185.477C790.494 185.477 785.976 170.112 780.553 150.231C778.916 144.638 778.72 138.723 779.984 133.034C781.248 127.345 783.93 122.069 787.782 117.696C787.782 117.696 796.823 109.555 812.188 114.98Z" fill="#E6E6E6"/>
<path d="M794.194 57.414C789.885 53.967 784.007 60.23 784.007 60.23L780.56 29.214C780.56 29.214 759.017 31.795 745.226 28.352C731.435 24.909 729.283 40.8521 729.283 40.8521C728.572 34.4135 728.428 27.9248 728.852 21.461C729.714 13.705 740.916 5.94904 760.737 0.778044C780.558 -4.39296 790.899 18.014 790.899 18.014C804.695 24.903 798.508 60.865 794.194 57.414Z" fill="black"/>
<path d="M856.385 557.75H119V559.94H856.385V557.75Z" fill="#E6E6E6"/>
<path d="M190.135 519.076C193.29 520.185 196.678 520.463 199.972 519.883C203.266 519.303 206.355 517.884 208.941 515.763C215.528 510.235 217.593 501.127 219.273 492.693L224.243 467.748L213.838 474.913C206.355 480.065 198.704 485.383 193.522 492.846C188.34 500.309 186.079 510.497 190.242 518.572" fill="#E16541"/>
<path d="M191.742 551.013C190.432 541.471 189.085 531.807 190.004 522.163C190.82 513.598 193.433 505.233 198.753 498.374C201.577 494.74 205.012 491.627 208.906 489.174C209.921 488.533 210.856 490.142 209.845 490.78C203.107 495.037 197.894 501.324 194.96 508.735C191.72 516.976 191.2 525.959 191.76 534.712C192.098 540.006 192.813 545.265 193.534 550.517C193.591 550.755 193.555 551.005 193.434 551.217C193.314 551.429 193.117 551.588 192.884 551.661C192.646 551.725 192.393 551.693 192.178 551.571C191.964 551.449 191.807 551.248 191.74 551.011L191.742 551.013Z" fill="#F2F2F2"/>
<path d="M201.169 535.703C202.522 537.76 204.382 539.433 206.57 540.563C208.758 541.692 211.2 542.239 213.66 542.15C219.983 541.85 225.255 537.437 230 533.25L244.036 520.858L234.747 520.414C228.067 520.094 221.214 519.796 214.847 521.856C208.48 523.916 202.616 528.874 201.453 535.456" fill="#E16541"/>
<path d="M188.04 556.498C194.34 545.342 201.658 532.943 214.725 528.98C218.358 527.882 222.168 527.489 225.949 527.821C227.141 527.921 226.843 529.761 225.649 529.658C219.311 529.132 212.985 530.805 207.737 534.397C202.686 537.835 198.754 542.614 195.426 547.683C193.387 550.783 191.561 554.024 189.735 557.256C189.153 558.288 187.453 557.543 188.04 556.498Z" fill="#F2F2F2"/>
<path d="M632.419 234.597H316.73C315.18 234.595 313.694 233.979 312.598 232.883C311.502 231.787 310.886 230.301 310.884 228.751V150.442C310.886 148.892 311.502 147.406 312.598 146.31C313.694 145.214 315.18 144.598 316.73 144.596H632.419C633.969 144.598 635.455 145.214 636.551 146.31C637.647 147.406 638.263 148.892 638.265 150.442V228.751C638.263 230.301 637.647 231.787 636.551 232.883C635.455 233.979 633.969 234.595 632.419 234.597ZM316.73 146.935C315.8 146.936 314.908 147.306 314.251 147.964C313.593 148.621 313.223 149.513 313.222 150.443V228.752C313.223 229.682 313.593 230.574 314.25 231.232C314.908 231.889 315.8 232.259 316.73 232.26H632.419C633.349 232.259 634.241 231.889 634.899 231.232C635.556 230.574 635.926 229.682 635.927 228.752V150.442C635.926 149.512 635.556 148.62 634.899 147.962C634.241 147.305 633.349 146.935 632.419 146.934L316.73 146.935Z" fill="#E6E6E6"/>
<path d="M420.781 170.715C419.728 170.715 418.719 171.133 417.974 171.878C417.23 172.622 416.812 173.631 416.812 174.684C416.812 175.737 417.23 176.746 417.974 177.491C418.719 178.235 419.728 178.653 420.781 178.653H607.889C608.942 178.653 609.951 178.235 610.695 177.491C611.44 176.746 611.858 175.737 611.858 174.684C611.858 173.631 611.44 172.622 610.695 171.878C609.951 171.133 608.942 170.715 607.889 170.715H420.781Z" fill="#E6E6E6"/>
<path d="M420.781 194.53C419.728 194.53 418.719 194.948 417.974 195.693C417.23 196.437 416.812 197.446 416.812 198.499C416.812 199.552 417.23 200.561 417.974 201.306C418.719 202.05 419.728 202.468 420.781 202.468H501.294C502.347 202.468 503.356 202.05 504.1 201.306C504.845 200.561 505.263 199.552 505.263 198.499C505.263 197.446 504.845 196.437 504.1 195.693C503.356 194.948 502.347 194.53 501.294 194.53H420.781Z" fill="#E6E6E6"/>
<path d="M366.006 210.225C379.158 210.225 389.82 199.563 389.82 186.411C389.82 173.259 379.158 162.597 366.006 162.597C352.854 162.597 342.192 173.259 342.192 186.411C342.192 199.563 352.854 210.225 366.006 210.225Z" fill="#E6E6E6"/>
<path d="M362.263 199.646C361.463 199.647 360.684 199.388 360.044 198.908L360.004 198.878L351.646 192.484C350.864 191.885 350.352 190.999 350.222 190.022C350.093 189.045 350.357 188.057 350.956 187.274C351.556 186.492 352.441 185.98 353.418 185.85C354.395 185.721 355.384 185.985 356.166 186.584L361.58 190.735L374.373 174.045C374.972 173.264 375.857 172.752 376.833 172.623C377.809 172.494 378.797 172.758 379.578 173.357L379.499 173.467L379.581 173.357C380.362 173.957 380.872 174.842 381.001 175.818C381.13 176.794 380.866 177.781 380.268 178.563L365.221 198.197C364.873 198.649 364.425 199.015 363.913 199.266C363.401 199.517 362.838 199.647 362.267 199.645L362.263 199.646Z" fill="#E16541"/>
</g>
<defs>
<clipPath id="clip0_33_4">
<rect width="856.385" height="559.94" fill="white"/>
</clipPath>
</defs>
</svg>
